<svg width="733" height="244" viewBox="0 0 733 244" fill="none" xmlns="http://www.w3.org/2000/svg">
<path d="M139.25 59.5C139.25 70.1667 136.75 79.9167 131.75 88.75C126.917 97.4167 119.5 104.417 109.5 109.75C99.6667 114.917 87.5833 117.5 73.25 117.5H49V177H4.32134e-07V0.749989H73.25C87.4167 0.749989 99.4167 3.24999 109.25 8.25C119.25 13.25 126.75 20.1667 131.75 29C136.75 37.8333 139.25 48 139.25 59.5ZM68.5 78.5C82.3333 78.5 89.25 72.1667 89.25 59.5C89.25 46.6667 82.3333 40.25 68.5 40.25H49V78.5H68.5ZM309.936 36.75L220.936 243.75H167.686L201.186 171L143.686 36.75H198.186L227.686 116.25L256.186 36.75H309.936Z" fill="url(#paint0_linear_29_2)"/>
<path d="M435.254 86.5C445.587 88.8333 453.754 94 459.754 102C465.921 109.833 469.004 118.833 469.004 129C469.004 144 463.837 155.75 453.504 164.25C443.171 172.75 428.671 177 410.004 177H322.754V0.749989H407.254C425.254 0.749989 439.337 4.74999 449.504 12.75C459.837 20.75 465.004 32 465.004 46.5C465.004 56.8333 462.254 65.5 456.754 72.5C451.421 79.3333 444.254 84 435.254 86.5ZM371.754 70.75H396.504C408.837 70.75 415.004 65.6667 415.004 55.5C415.004 45 408.837 39.75 396.504 39.75H371.754V70.75ZM400.254 137.5C412.587 137.5 418.754 132.333 418.754 122C418.754 116.667 417.087 112.583 413.754 109.75C410.587 106.917 406.004 105.5 400.004 105.5H371.754V137.5H400.254ZM555.729 178.75C541.729 178.75 529.145 175.833 517.979 170C506.979 164.167 498.312 155.833 491.979 145C485.645 134.167 482.479 121.417 482.479 106.75C482.479 92.25 485.645 79.5833 491.979 68.75C498.479 57.9167 507.229 49.5833 518.229 43.75C529.395 37.9167 541.979 35 555.979 35C569.979 35 582.479 37.9167 593.479 43.75C604.645 49.5833 613.395 57.9167 619.729 68.75C626.229 79.5833 629.479 92.25 629.479 106.75C629.479 121.25 626.229 134 619.729 145C613.395 155.833 604.645 164.167 593.479 170C582.312 175.833 569.729 178.75 555.729 178.75ZM555.729 136.25C562.562 136.25 568.229 133.75 572.729 128.75C577.395 123.583 579.729 116.25 579.729 106.75C579.729 97.25 577.395 90 572.729 85C568.229 80 562.645 77.5 555.979 77.5C549.312 77.5 543.729 80 539.229 85C534.729 90 532.479 97.25 532.479 106.75C532.479 116.417 534.645 123.75 538.979 128.75C543.312 133.75 548.895 136.25 555.729 136.25ZM732.164 135.25V177H710.914C675.081 177 657.164 159.25 657.164 123.75V77.5H639.914V36.75H657.164V2.74999H706.414V36.75H731.914V77.5H706.414V124.5C706.414 128.333 707.247 131.083 708.914 132.75C710.747 134.417 713.747 135.25 717.914 135.25H732.164Z" fill="url(#paint1_linear_29_2)"/>
<defs>
<linearGradient id="paint0_linear_29_2" x1="12.5" y1="5.50002" x2="364" y2="177" gradientUnits="userSpaceOnUse">
<stop stop-color="#009B9B"/>
<stop offset="1" stop-color="white"/>
</linearGradient>
<linearGradient id="paint1_linear_29_2" x1="297.5" y1="141.5" x2="770" y2="195.5" gradientUnits="userSpaceOnUse">
<stop stop-color="white"/>
<stop offset="1" stop-color="#F1EFEF" stop-opacity="0"/>
</linearGradient>
</defs>
</svg>
